<svg t="1760599844046" class="icon" viewBox="0 0 1024 1024" version="1.1" xmlns="http://www.w3.org/2000/svg" p-id="1800" width="200" height="200"><path d="M294.77888 729.22112c161.3824 128.256 306.19136 128.256 434.44224 0 128.256-128.25088 128.256-273.06496 0-434.44224 31.70816 161.3824 7.5776 282.0608-72.40704 362.0352-79.9744 79.97952-200.6528 104.1152-362.0352 72.40704z" fill="#FCE4E4" p-id="1801"></path><path d="M713.2672 285.14816l39.15264 12.01664c-54.3488 177.07008-204.82048 327.53664-449.93536 451.88096l-18.5344-36.5312c236.04736-119.74144 378.65984-262.3488 429.312-427.3664z" fill="#EA5555" p-id="1802"></path><path d="M602.22976 225.87392l40.8576-2.90816c9.69728 136.29952-64.16384 213.36064-213.7088 225.21344-129.19808 10.23488-189.824 59.5968-190.53056 150.23616l-40.96-0.31744c0.896-114.69312 79.86176-178.9952 228.25472-190.75072 128.04608-10.14784 184.1152-68.64896 176.08704-181.47328zM815.42656 478.0544l-2.43712-40.8832c-110.3872 6.58944-166.87104 70.47168-163.62496 184.32 2.56 89.71264-73.30816 144.11264-237.3632 162.31424l4.52096 40.70912c182.5792-20.25472 277.0944-88.02816 273.78688-204.19584-2.62656-92.03712 37.13536-137.0112 125.11744-142.2592z" fill="#F29393" p-id="1803"></path><path d="M317.48096 284.43648l23.38304-33.62816c240.71168 167.38304 386.01216 312.6784 435.95776 437.85216l-38.0416 15.1808c-46.208-115.7888-186.65984-256.24576-421.2992-419.4048z" fill="#EA5555" p-id="1804"></path><path d="M280.2944 743.7056c-127.96416-127.96928-127.96416-335.44192 0-463.4112 127.96928-127.96416 335.44192-127.96416 463.4112 0 127.96416 127.96928 127.96416 335.44192 0 463.4112-127.96928 127.96416-335.44192 127.96416-463.4112 0z m28.96384-28.96384c111.9744 111.9744 293.51424 111.9744 405.48352 0 111.9744-111.9744 111.9744-293.51424 0-405.48352-111.9744-111.9744-293.51424-111.9744-405.48352 0-111.9744 111.9744-111.9744 293.51424 0 405.48352z" fill="#EA5555" p-id="1805"></path></svg>