<?xml version="1.0" encoding="UTF-8"?>
<svg width="32px" height="32px" viewBox="0 0 32 32" version="1.1" xmlns="http://www.w3.org/2000/svg">
    <g stroke="none" stroke-width="1" fill="none" fill-rule="evenodd">
        <circle fill="#ED7B2F" cx="16" cy="16" r="14"></circle>
        <circle stroke="#FFFFFF" stroke-width="3" cx="16" cy="16" r="12.5"></circle>
        <path d="M16,4 C22.627417,4 28,9.372583 28,16 C28,22.627417 22.627417,28 16,28 C9.372583,28 4,22.627417 4,16 C4,9.372583 9.372583,4 16,4 Z M16,7 C11.0294373,7 7,11.0294373 7,16 C7,20.9705627 11.0294373,25 16,25 C20.9705627,25 25,20.9705627 25,16 C25,11.0294373 20.9705627,7 16,7 Z" fill="#FFFFFF"></path>
        <path d="M16,7 C16.5522847,7 17,7.44771525 17,8 L17,24 C17,24.5522847 16.5522847,25 16,25 C15.4477153,25 15,24.5522847 15,24 L15,8 C15,7.44771525 15.4477153,7 16,7 Z" fill="#FFFFFF"></path>
        <path d="M25,15 C25.5522847,15 26,15.4477153 26,16 C26,16.5522847 25.5522847,17 25,17 L7,17 C6.44771525,17 6,16.5522847 6,16 C6,15.4477153 6.44771525,15 7,15 L25,15 Z" fill="#FFFFFF"></path>
        <path d="M22.1421356,9.85786438 C22.5326649,10.2483936 22.5326649,10.8815689 22.1421356,11.2720982 L11.2720982,22.1421356 C10.8815689,22.5326649 10.2483936,22.5326649 9.85786438,22.1421356 C9.46734315,21.7516063 9.46734315,21.1184311 9.85786438,20.7279018 L20.7279018,9.85786438 C21.1184311,9.46734315 21.7516063,9.46734315 22.1421356,9.85786438 Z" fill="#FFFFFF"></path>
    </g>
</svg>
